<svg width="455" height="589" viewBox="0 0 455 589" fill="none" xmlns="http://www.w3.org/2000/svg">
<path d="M213.842 589C146.724 589 94.1738 569.393 56.1921 530.178C18.7307 490.964 0 436.064 0 365.478C0 296.984 14.8285 235.025 44.4854 179.602C74.6627 123.656 115.246 79.7359 166.235 47.8415C217.224 15.9472 273.416 0 334.811 0C372.273 0 401.67 6.01287 423.002 18.0386C444.334 30.0644 455 46.7958 455 68.233C455 86.0102 447.976 101.173 433.928 113.722C419.88 125.747 402.45 131.76 381.638 131.76C359.265 131.76 337.135 131.76 319.983 116.859C302.83 101.957 304.862 79.2131 277.253 73.0859C249.645 66.9586 211.501 103.526 184.966 133.329C158.431 163.132 137.619 198.686 122.53 239.992C107.441 280.775 99.8971 324.695 99.8971 371.752C99.8971 422.47 109.783 462.207 129.554 490.964C149.325 519.721 176.641 534.1 211.501 534.1C238.036 534.1 261.71 527.564 282.521 514.493C303.333 500.898 319.723 482.598 331.69 459.593C344.177 436.064 351.461 409.921 353.542 381.164C373.834 381.164 389.443 385.608 400.369 394.497C411.815 402.862 417.539 416.457 417.539 435.28C417.539 462.991 408.173 488.611 389.443 512.14C371.232 535.668 346.518 554.491 315.3 568.609C284.082 582.203 250.263 589 213.842 589Z" fill="#000807"/>
<path d="M225.267 246.182C226.24 246.248 227.201 246.355 228.147 246.509C233.334 247.356 238.013 248.854 242.334 250.606C244.391 250.505 246.426 250.549 248.403 250.801C255.442 251.697 261.596 253.811 267.203 256.156C266.753 255.546 266.299 254.931 265.84 254.311C254.281 238.693 251.501 225.203 249.92 216.115C242.847 223.042 233.886 233.753 225.267 246.182Z" fill="#FE5E41"/>
<path d="M293.227 266.006C291.045 263.208 288.753 260.299 286.342 257.268C273.576 241.22 270.672 227.196 268.807 218.188C267.23 210.57 266.395 206.539 260.967 207.901C259.601 208.244 257.722 209.371 255.46 211.16C255.607 211.974 255.754 212.833 255.903 213.698L255.981 214.156L278.797 261.304C283.596 263.387 288.227 265.118 293.227 266.006Z" fill="#FE5E41"/>
<path d="M256.25 215.704C257.771 224.298 260.454 236.4 270.887 250.496C273.202 253.624 275.406 256.628 277.503 259.52L278.797 261.304L255.981 214.156C256.07 214.675 256.16 215.193 256.25 215.704Z" fill="#FE5E41"/>
<path d="M240.812 259.823C238.137 260.089 235.212 260.619 232.029 261.294C230.65 261.586 229.216 261.907 227.746 262.237L227.743 262.237C225.48 262.744 223.131 263.271 220.766 263.74L264.397 270.491C259.727 268.93 255.461 266.9 251.379 264.886C250.753 264.577 250.132 264.269 249.515 263.963C246.575 262.505 243.719 261.089 240.812 259.823Z" fill="#FFE629"/>
<path d="M226.676 255.471C222.497 254.789 217.419 255.366 211.421 256.419C210.034 256.662 208.59 256.933 207.11 257.21L207.106 257.211C202.491 258.075 197.522 259.005 192.791 259.394L192.779 259.395L192.768 259.396L192.743 259.397L192.732 259.398L192.722 259.398L192.712 259.399L192.707 259.399L220.766 263.74C223.131 263.271 225.48 262.744 227.743 262.237L227.746 262.237C229.216 261.907 230.65 261.586 232.029 261.294C235.212 260.619 238.137 260.089 240.812 259.823C236.377 257.892 231.825 256.312 226.676 255.471Z" fill="#FFE629"/>
<path d="M279.455 273.263C279.389 273.261 279.322 273.262 279.254 273.26C273.795 273.067 268.908 271.998 264.397 270.491L220.766 263.74C218.341 264.221 215.899 264.643 213.513 264.925C213.497 264.926 213.481 264.928 213.465 264.929L213.462 264.929C213.453 264.93 213.444 264.931 213.435 264.932C213.429 264.932 213.424 264.933 213.419 264.933C206.219 277.51 200.218 290.707 197.189 302.895C197.633 302.812 198.079 302.728 198.527 302.645L198.534 302.643L198.535 302.643L198.538 302.643L198.542 302.642L198.549 302.64L198.561 302.638L198.57 302.636L198.575 302.635L198.583 302.634L198.589 302.633L198.596 302.632L198.608 302.629L198.618 302.627C200.174 302.336 201.755 302.04 203.368 301.757C209.371 300.704 215.827 299.831 221.696 300.789C227.148 301.68 232.039 303.288 236.543 305.156C239.014 304.971 241.464 304.974 243.83 305.275C253.83 306.548 262.042 310.278 269.437 313.637C270.118 313.947 270.792 314.253 271.46 314.554C272.521 315.032 273.57 315.498 274.611 315.947L285.15 282C283.411 279.174 281.511 276.273 279.455 273.263Z" fill="#FFE629"/>
<path d="M297.615 313.272C296.188 302.751 291.886 292.948 285.15 282L274.611 315.947C276.525 316.773 278.415 317.541 280.315 318.22C287.075 317.513 292.923 315.548 297.615 313.272Z" fill="#FFE629"/>
<path d="M248.989 311.037C256.913 314.946 264.124 318.149 273.117 318.467C273.353 318.475 273.588 318.482 273.823 318.487L274.611 315.947C273.57 315.498 272.521 315.032 271.46 314.554C270.792 314.253 270.118 313.947 269.437 313.637C262.042 310.278 253.83 306.548 243.83 305.275C241.464 304.974 239.014 304.971 236.543 305.156C240.258 306.697 243.71 308.414 246.998 310.049C247.669 310.383 248.332 310.712 248.989 311.037Z" fill="#FFE629"/>
<path d="M273.823 318.487C276.068 318.536 278.235 318.437 280.315 318.22C278.415 317.541 276.525 316.773 274.611 315.947L273.823 318.487Z" fill="#FFE629"/>
<path d="M173.531 303.579C176.943 304.765 180.951 305.009 185.576 304.629C189.357 304.319 193.195 303.639 197.189 302.895C200.218 290.707 206.219 277.51 213.419 264.933L213.435 264.932L213.462 264.929L213.465 264.929C213.481 264.928 213.497 264.926 213.513 264.925C215.899 264.643 218.341 264.221 220.766 263.74L192.707 259.399L192.697 259.4C183.609 274.069 176.19 289.677 173.531 303.579Z" fill="#FFE629"/>
<path d="M297.744 328.287C297.943 326.495 298.061 324.737 298.114 323.013C292.705 325.229 286.332 326.94 279.18 327.434C284.215 329.071 289.679 330.207 295.83 330.207C296.391 330.207 296.947 330.2 297.499 330.185C297.592 329.548 297.674 328.916 297.744 328.287Z" fill="#3185FC"/>
<path d="M272.804 327.54C272.209 327.519 271.622 327.488 271.041 327.447L254.14 381.889C280.533 373.451 294.602 350.023 297.499 330.185C296.947 330.2 296.391 330.207 295.83 330.207C289.679 330.207 284.215 329.071 279.18 327.434C277.118 327.576 274.991 327.617 272.804 327.54Z" fill="#3185FC"/>
<path d="M208.94 319.399C204.368 319.938 199.586 320.016 194.965 318.938C193.697 349.735 205.408 375.42 230.651 385.097C239.353 385.299 247.175 384.116 254.14 381.889L271.041 327.447C260.759 326.718 252.523 322.914 244.928 319.166C244.302 318.858 243.682 318.55 243.064 318.243C240.371 316.908 237.749 315.607 235.093 314.425C232.735 314.716 230.191 315.189 227.457 315.768C226.078 316.061 224.645 316.382 223.175 316.711L223.171 316.712C218.589 317.738 213.656 318.844 208.94 319.399Z" fill="#3185FC"/>
<path d="M320.781 330.074C320.919 328.276 320.975 326.515 320.969 324.79C316.075 326.999 310.355 328.811 303.931 329.67C303.6 332.367 303.078 335.133 302.363 337.928C296.945 359.112 280.432 381.96 251.878 389.174C252.801 389.205 253.735 389.221 254.68 389.221C298.115 389.221 318.816 355.745 320.781 330.074Z" fill="#3185FC"/>
<path d="M194.965 318.938C199.586 320.016 204.368 319.938 208.94 319.399C213.656 318.844 218.589 317.738 223.171 316.712L223.175 316.711C224.645 316.382 226.078 316.061 227.457 315.768C230.191 315.189 232.735 314.716 235.093 314.425C230.427 312.348 225.658 310.638 220.225 309.751C218.036 309.394 215.6 309.382 212.915 309.603C211.216 309.92 209.536 310.19 207.864 310.387C207.046 310.483 206.246 310.559 205.465 310.613C205.301 310.641 205.136 310.67 204.971 310.699C203.583 310.942 202.139 311.213 200.659 311.49L200.655 311.491C196.04 312.355 191.072 313.285 186.34 313.674C181.752 314.051 176.971 313.961 172.389 312.721C169.415 351.945 187.855 383.592 229.641 385.067C229.979 385.079 230.315 385.089 230.651 385.097C205.408 375.42 193.697 349.735 194.965 318.938Z" fill="#3185FC"/>
<path d="M300.603 275.728C300.536 275.728 300.47 275.733 300.402 275.733C295.787 275.733 291.559 275.093 287.608 274.082C296.17 287.182 302.061 299.128 303.862 312.408C303.862 312.408 303.975 313.2 304.039 313.709C304.363 316.307 304.502 320.397 304.502 320.397C310.6 319.359 315.866 317.331 320.134 315.072C317.883 301.908 311.121 290.038 300.603 275.728Z" fill="#FFE629"/>
<path fill-rule="evenodd" clip-rule="evenodd" d="M249.665 214.636C248.352 206.968 247.657 202.909 242.186 204.079C235.473 205.515 215.913 225.145 199.217 249.401C201.118 249.082 203.048 248.722 205.018 248.354C206.591 248.061 208.189 247.763 209.818 247.477C214.854 246.594 220.208 245.837 225.267 246.182C233.886 233.753 242.847 223.042 249.92 216.115C249.834 215.621 249.752 215.141 249.672 214.673L249.672 214.672L249.666 214.64L249.665 214.636ZM267.203 256.156C261.596 253.811 255.442 251.697 248.403 250.801C246.426 250.549 244.391 250.505 242.334 250.606C246.301 252.214 249.967 254.037 253.449 255.769L253.453 255.771C254.122 256.104 254.784 256.433 255.44 256.757C261.158 259.578 266.506 262.02 272.419 263.287C270.75 260.985 269.013 258.61 267.203 256.156ZM205.465 310.613C208.133 310.153 210.615 309.793 212.915 309.603C211.216 309.92 209.536 310.19 207.864 310.387C207.046 310.483 206.246 310.559 205.465 310.613Z" fill="#FE5E41"/>
</svg>
